<?xml version="1.0" standalone="no"?>
<!DOCTYPE svg PUBLIC "-//W3C//DTD SVG 20010904//EN"
 "http://www.w3.org/TR/2001/REC-SVG-20010904/DTD/svg10.dtd">
<svg version="1.0" xmlns="http://www.w3.org/2000/svg"
 width="1024.000000pt" height="1024.000000pt" viewBox="0 0 1024.000000 1024.000000"
 preserveAspectRatio="xMidYMid meet">

<g transform="translate(0.000000,1024.000000) scale(0.100000,-0.100000)"
fill="#000000" stroke="none">
<path d="M10 7888 c0 -1294 -3 -3598 -7 -5120 l-6 -2768 5121 0 5122 0 0 5120
0 5120 -5115 0 -5115 0 0 -2352z m3380 169 c0 -1 -272 -274 -605 -607 l-605
-605 0 608 0 607 605 0 c333 0 605 -1 605 -3z m580 -1782 l-1785 -1785 -3 587
-2 588 1197 1197 1198 1198 590 0 590 0 -1785 -1785z m2627 308 l-1477 -1478
1472 -1467 1473 -1467 -585 0 -585 0 -1180 1174 -1180 1174 -290 -290 -290
-289 170 -168 c93 -92 495 -490 892 -884 l723 -718 -593 0 -592 0 -595 590
-595 589 -290 -289 -290 -290 305 -299 305 -300 -607 0 -608 -1 0 562 0 563
2382 2382 2383 2383 565 0 565 0 -1478 -1477z"/>
</g>
</svg>
